<svg width="70" height="70" viewBox="0 0 70 70" fill="none" xmlns="http://www.w3.org/2000/svg">
<circle cx="35" cy="35" r="35" fill="#25B4F8"/>
<g clip-path="url(#clip0_136_425)">
<path d="M50.9598 15.9175C50.7807 15.5729 50.3559 15.4385 50.0117 15.6175C49.6671 15.7966 49.5327 16.221 49.7118 16.5657C50.6291 18.3315 50.8217 20.361 50.2541 22.28C50.0278 23.0468 48.0396 29.7807 47.9528 30.115C47.9356 30.1817 47.8759 30.2286 47.8082 30.2286H31.2152C30.8267 30.2286 30.5121 30.5431 30.5121 30.9317C30.5121 31.3199 30.8267 31.6348 31.2152 31.6348H45.6747L45.2839 33.7834C45.2707 33.8544 45.2092 33.9057 45.1371 33.9057H24.8776C24.8055 33.9057 24.744 33.8544 24.7311 33.7834L24.34 31.6348H28.1534C28.5415 31.6348 28.8565 31.3199 28.8565 30.9317C28.8565 30.5431 28.5415 30.2286 28.1534 30.2286H22.2065C22.1387 30.2286 22.079 30.1821 22.0618 30.1154C22.06 30.1081 22.0578 30.1008 22.056 30.0934L19.7606 22.28C19.0659 19.9304 19.5083 17.4574 20.9746 15.4945C22.4409 13.532 24.6868 12.4062 27.1368 12.4062C27.8659 12.4062 28.587 12.5081 29.2802 12.7087C33.0269 13.7938 36.9882 13.7938 40.7345 12.7087C41.4277 12.5081 42.1488 12.4062 42.8779 12.4062C44.7628 12.4062 46.5715 13.0903 47.9715 14.3325C48.2619 14.5903 48.7065 14.564 48.9643 14.2735C49.2221 13.9828 49.1954 13.5386 48.905 13.2808C47.2475 11.8101 45.107 11 42.8779 11C42.0166 11 41.1637 11.1205 40.3434 11.3578C36.8527 12.3689 33.162 12.3689 29.6713 11.3578C28.851 11.1205 27.9981 11 27.1368 11C24.239 11 21.5821 12.3315 19.8477 14.6529C18.1134 16.9743 17.5901 19.8996 18.4118 22.6773L20.7039 30.4805C20.8859 31.1609 21.5023 31.6348 22.2065 31.6348H22.9107L23.3476 34.0349C23.482 34.7751 24.1258 35.3119 24.8776 35.3119H27.9417L28.4383 39.5892L27.9428 39.7218C27.4301 39.8591 27.0016 40.188 26.7365 40.6476C26.471 41.1072 26.4007 41.6426 26.538 42.1549C26.7757 43.0415 27.5802 43.6274 28.4573 43.6274C28.6042 43.6274 28.7532 43.6099 28.9019 43.5758L29.1546 45.7514L28.4844 45.9313C27.4264 46.2147 26.7962 47.306 27.0796 48.3644C27.3173 49.2506 28.1219 49.8369 28.9989 49.8369C29.1689 49.8369 29.341 49.8149 29.5127 49.7688L29.6178 49.7406L29.8705 51.914L29.2967 52.0678C28.784 52.2052 28.3559 52.534 28.0904 52.9936C27.8252 53.4532 27.7549 53.9882 27.8923 54.5009C28.0292 55.0133 28.3581 55.4417 28.8177 55.7072C29.1238 55.8837 29.4633 55.9742 29.8075 55.9742C29.98 55.9742 30.154 55.9515 30.325 55.9057L30.3341 55.9031L30.5257 57.5515C30.6213 58.3773 31.3207 59.0002 32.1524 59.0002H37.8627C38.694 59.0002 39.3934 58.3773 39.4894 57.5515L39.9812 53.3184L40.7184 53.1207C41.776 52.8372 42.4062 51.7459 42.1228 50.688C41.9082 49.8874 41.2311 49.3326 40.4558 49.2323L40.7433 46.7596L41.5306 46.5487C42.5882 46.2656 43.2185 45.1739 42.935 44.116C42.7161 43.2986 42.0155 42.7372 41.2201 42.6544L41.5054 40.2012L42.0719 40.0496C43.1302 39.7658 43.7601 38.6744 43.4767 37.6165C43.2771 36.872 42.6776 36.3402 41.9712 36.1886L42.0734 35.3123H45.1371C45.8893 35.3123 46.5327 34.7751 46.6675 34.0353L47.1043 31.6348H47.8082C48.5168 31.6348 49.1361 31.1551 49.3141 30.4684C49.3759 30.2297 50.7166 25.6791 51.6029 22.6788C52.2738 20.4094 52.0456 18.0082 50.9598 15.9175ZM38.0923 57.3889C38.0787 57.5057 37.9799 57.5936 37.8627 57.5936H32.152C32.0348 57.5936 31.9359 57.5057 31.9224 57.3889L31.7071 55.5351L38.52 53.7095L38.0923 57.3889ZM40.7642 51.0516C40.8473 51.3607 40.6631 51.6793 40.354 51.7624L29.961 54.5471C29.8112 54.5874 29.6548 54.5665 29.5208 54.4892C29.3864 54.4116 29.2904 54.2867 29.2505 54.1369C29.2102 53.9871 29.2308 53.8308 29.3084 53.6967C29.386 53.5623 29.5109 53.4664 29.6607 53.4261L40.0537 50.6414C40.1039 50.6279 40.1541 50.6217 40.2039 50.6217C40.4598 50.6213 40.6949 50.7927 40.7642 51.0516ZM39.0129 49.4644L31.2434 51.5463L30.9911 49.3725L39.2817 47.1511L39.0129 49.4644ZM41.5768 44.4796C41.6595 44.7887 41.4753 45.1077 41.1663 45.1904L29.1487 48.4105C28.8396 48.4936 28.5207 48.3094 28.4379 48.0003C28.3551 47.6913 28.5394 47.3727 28.8484 47.2895L40.866 44.0695C40.9161 44.0559 40.9667 44.0497 41.0161 44.0497C41.2725 44.0497 41.5076 44.2207 41.5768 44.4796ZM42.1184 37.9801C42.2012 38.2892 42.017 38.6082 41.7079 38.6909L37.4115 39.8423C37.0365 39.9426 36.8139 40.3283 36.9146 40.7033C37.0149 41.0782 37.4002 41.3009 37.7755 41.2006L40.0438 40.5927L39.775 42.906L30.5275 45.3838L30.2752 43.2103L34.8154 41.9938C35.1908 41.8931 35.4131 41.5074 35.3128 41.1324C35.2124 40.7575 34.8268 40.5348 34.4514 40.6351L28.6071 42.2014C28.298 42.2842 27.9794 42.1 27.8963 41.7909C27.8564 41.6415 27.8769 41.4851 27.9545 41.3507C28.0318 41.2167 28.157 41.1204 28.3068 41.0804L41.4076 37.57C41.7167 37.4868 42.0356 37.6714 42.1184 37.9801ZM40.5371 36.3472L29.8116 39.2212L29.3575 35.3119H40.6576L40.5371 36.3472Z" fill="white"/>
<path d="M40.3433 15.1079C36.8526 16.119 33.162 16.119 29.6713 15.1079C29.2985 15.0002 28.9081 15.2148 28.8004 15.588C28.6924 15.9608 28.907 16.3508 29.2801 16.4588C31.1533 17.0015 33.0803 17.2729 35.0073 17.2729C36.9343 17.2729 38.8613 17.0015 40.7345 16.4588C41.1076 16.3508 41.3226 15.9608 41.2146 15.588C41.1065 15.2148 40.7161 15.0002 40.3433 15.1079Z" fill="white"/>
</g>
<defs>
<clipPath id="clip0_136_425">
<rect width="48" height="48" fill="white" transform="translate(11 11)"/>
</clipPath>
</defs>
</svg>
