<svg width="70" height="70" viewBox="0 0 70 70" fill="none" xmlns="http://www.w3.org/2000/svg">
<circle cx="35" cy="35" r="35" fill="#25B4F8"/>
<path d="M52.2973 15.2508C51.1423 14.2188 49.8245 13.3788 48.3875 12.7983C46.9153 12.2035 45.3418 11.887 43.7578 11.8105C43.4758 11.797 43.193 11.791 42.911 11.791C41.4328 11.7948 39.9148 12.1788 38.519 12.9025C36.317 14.0448 33.6898 14.044 31.4885 12.9025C30.0928 12.1788 28.574 11.7948 27.0965 11.791C25.5058 11.791 23.9158 12.0085 22.403 12.511C20.933 12.9993 19.5575 13.75 18.3455 14.7138C18.1295 14.8855 17.9173 15.0648 17.711 15.25C14.6503 17.9928 13.0168 22.0923 13.229 26.5C13.4338 30.4893 14.7515 35.8225 19.7338 38.9808C19.7053 40.09 19.6828 41.2315 19.7608 42.3858C19.814 43.0878 19.8748 43.8835 19.9993 44.674C20.6743 49.0405 22.0063 53.9223 26.7658 57.0205C27.908 57.7638 29.7553 58.8408 31.004 57.6693C31.8755 56.851 32.0938 55.3758 32.1553 54.2395C32.1575 54.1863 32.4463 49.2963 35.0383 44.4633C36.0853 46.1905 37.7233 49.6255 38.303 54.889C38.4658 56.3665 39.1025 58.2093 40.8935 58.2093C41.8258 58.2093 42.6703 57.6933 43.0063 57.4885C45.8248 55.7688 47.7913 53.4303 49.0183 50.341C50.483 46.6675 50.627 43.0945 50.3383 38.9463C55.2905 35.77 56.5828 30.463 56.7688 26.4918C56.9923 22.0855 55.3618 17.9883 52.2973 15.2508ZM40.7435 34.552C39.4655 33.6528 37.6858 32.6508 35.6435 31.9045C35.1965 31.741 34.7968 31.627 34.358 31.9045C32.321 32.6485 30.545 33.6468 29.2685 34.5445C29.0465 31.615 28.1885 28.6593 27.392 26.5143L32.714 27.8958C34.3655 28.3255 36.1093 28.315 37.7548 27.8658L42.5908 26.506C41.813 28.6743 40.9625 31.6278 40.7435 34.552ZM35.7928 41.6343C35.558 41.374 35.219 41.2383 34.8673 41.266C34.5185 41.2938 34.202 41.4828 34.0123 41.7775C30.2968 47.5315 29.924 53.854 29.9105 54.1188C29.9098 54.127 29.9083 54.1345 29.9083 54.1428C26.9668 47.08 28.796 39.0325 29.1845 37.519C29.612 37.0038 31.9198 35.218 35.0008 34.0653C38.1283 35.2353 40.4615 37.06 40.8373 37.543C41.2835 39.0123 43.5268 47.221 40.5035 54.361C39.4963 45.8418 35.9458 41.8023 35.7928 41.6343ZM27.83 55.0188C23.948 52.393 22.8125 48.1495 22.2215 44.3253C22.1105 43.6218 22.0535 42.8733 22.004 42.2223C21.9275 41.101 21.9568 39.9843 21.9875 38.8C22.004 38.1295 21.929 37.6758 21.3125 37.3173C16.8208 34.708 15.6568 29.935 15.4745 26.3853C15.2953 22.6608 16.6565 19.2115 19.211 16.9225C20.7508 15.5425 22.6393 14.6215 24.6725 14.248C26.6465 13.8858 28.643 13.9593 30.4513 14.8968C33.3005 16.3743 36.7033 16.375 39.5533 14.8968C40.6318 14.3373 41.7943 14.0403 42.9155 14.038C44.4913 14.038 46.0655 14.2915 47.531 14.881C48.7295 15.3633 49.8343 16.0615 50.7958 16.924C53.351 19.207 54.71 22.6518 54.5225 26.3785C54.356 29.9515 53.1965 34.7545 48.6238 37.3683C48.287 37.561 48.0148 38.0298 48.0523 38.4415C48.38 42.5733 48.314 46.0353 46.9295 49.507C46.016 51.8073 44.6203 53.6148 42.6793 55.0075C44.8828 49.6353 44.7335 43.3825 43.2605 37.834C42.3515 34.411 43.5425 30.5178 44.7073 27.265C44.987 26.4843 44.8108 25.6218 44.2475 25.0113C43.6783 24.3978 42.8233 24.1525 42.02 24.3715L37.1615 25.6938C35.8933 26.0388 34.5508 26.047 33.2773 25.717L27.9553 24.3355C27.152 24.1263 26.3045 24.3783 25.7443 24.9918C25.1878 25.6015 25.0153 26.461 25.2935 27.2358C26.405 30.3325 27.605 33.7983 26.951 37.126C26.5123 39.3565 26.1088 41.5428 26.0173 43.825C25.9445 45.643 26.0188 47.4693 26.276 49.2708C26.4845 50.7288 26.8175 52.1853 27.2878 53.5818C27.2878 53.5818 27.6208 54.7608 27.83 55.0188Z" fill="white" stroke="#25B4F8" stroke-width="0.7"/>
</svg>
