<svg width="70" height="70" viewBox="0 0 70 70" fill="none" xmlns="http://www.w3.org/2000/svg">
<circle cx="35" cy="35" r="35" fill="#25B4F8"/>
<g clip-path="url(#clip0_136_424)">
<path d="M17.0692 30.1796C19.2678 34.3768 22.6254 36.9832 25.8449 38.5992C30.99 41.1816 36.5275 41.5076 41.7602 39.5802L41.8554 39.5454" stroke="white" stroke-width="1.5" stroke-miterlimit="10" stroke-linecap="round" stroke-linejoin="round"/>
<path d="M44.8091 38.1816C47.7694 36.5456 50.7673 34.0367 52.7863 30.196" stroke="white" stroke-width="1.5" stroke-miterlimit="10" stroke-linecap="round" stroke-linejoin="round"/>
<path d="M11.6931 29.5166C12.4966 30.4822 13.3059 31.4408 14.1171 32.3972C18.1876 37.1967 22.1466 41.9178 27.4514 44.7796C32.5462 47.5283 37.4405 47.5353 42.5487 44.7795C47.8533 41.9178 51.8124 37.1967 55.8828 32.3972C56.694 31.4408 57.5034 30.4822 58.3068 29.5166" stroke="white" stroke-width="1.5" stroke-miterlimit="10" stroke-linecap="round" stroke-linejoin="round"/>
<path d="M30.4174 31.1345V34.2529C30.4174 34.7475 30.8182 35.1484 31.3129 35.1484H34.085C34.5795 35.1484 34.9805 34.7475 34.9805 34.2529V31.2263" stroke="white" stroke-width="1.5" stroke-miterlimit="10" stroke-linecap="round" stroke-linejoin="round"/>
<path d="M34.9875 31.2263V34.2529C34.9875 34.7476 35.3885 35.1484 35.883 35.1484H38.6552C39.1498 35.1484 39.5506 34.7476 39.5506 34.2529V31.1345" stroke="white" stroke-width="1.5" stroke-miterlimit="10" stroke-linecap="round" stroke-linejoin="round"/>
<path d="M39.5825 31.1345V34.3765C39.5825 34.8028 39.9282 35.1484 40.3545 35.1484H42.744C43.1702 35.1484 43.5158 34.8028 43.5158 34.3765V30.9528" stroke="white" stroke-width="1.5" stroke-miterlimit="10" stroke-linecap="round" stroke-linejoin="round"/>
<path d="M43.5159 30.954V33.0646C43.5159 33.4679 43.8429 33.7949 44.2462 33.7949H46.507C46.9104 33.7949 47.2374 33.4679 47.2374 33.0646V30.7034" stroke="white" stroke-width="1.5" stroke-miterlimit="10" stroke-linecap="round" stroke-linejoin="round"/>
<path d="M30.4173 31.1345V34.3765C30.4173 34.8028 30.0716 35.1484 29.6454 35.1484H27.2559C26.8296 35.1484 26.484 34.8028 26.484 34.3765V30.9528" stroke="white" stroke-width="1.5" stroke-miterlimit="10" stroke-linecap="round" stroke-linejoin="round"/>
<path d="M26.4841 30.9541V33.0646C26.4841 33.4679 26.1571 33.7949 25.7538 33.7949H23.493C23.0896 33.7949 22.7626 33.4679 22.7626 33.0646V30.7034" stroke="white" stroke-width="1.5" stroke-miterlimit="10" stroke-linecap="round" stroke-linejoin="round"/>
<path d="M26.4425 22.1329C29.3598 21.0673 32.3401 20.8752 35.0001 23.19C40.1946 18.6695 46.6107 23.7099 51.3933 26.1439C53.6781 27.3068 56.0023 28.381 58.2972 29.5213C58.2972 29.5213 47.2394 31.1698 35.0098 31.2264V31.2266C35.0066 31.2266 35.0033 31.2265 35.0001 31.2265C34.9969 31.2265 34.9936 31.2266 34.9903 31.2266V31.2264C22.7607 31.1698 11.703 29.5213 11.703 29.5213C13.9979 28.381 16.3221 27.3068 18.6068 26.1439C20.0676 25.4005 21.6806 24.414 23.3648 23.531L23.5072 23.4567" stroke="white" stroke-width="1.5" stroke-miterlimit="10" stroke-linecap="round" stroke-linejoin="round"/>
<path d="M50.3602 45.0441C50.0561 45.689 49.1753 47.2639 47.6232 47.7996C47.5029 47.8412 47.5029 48.0123 47.6232 48.0538C49.1753 48.5895 50.0561 50.1644 50.3602 50.8093C50.4089 50.9125 50.5558 50.9125 50.6044 50.8093C50.9085 50.1644 51.7893 48.5895 53.3415 48.0538C53.4617 48.0123 53.4617 47.8412 53.3415 47.7996C51.7893 47.2639 50.9085 45.689 50.6044 45.0441C50.5558 44.9409 50.4089 44.9409 50.3602 45.0441Z" stroke="white" stroke-width="1.5" stroke-miterlimit="10" stroke-linecap="round" stroke-linejoin="round"/>
<path d="M20.4622 12.7672C20.0433 13.6555 18.8302 15.8247 16.6924 16.5625C16.5267 16.6197 16.5267 16.8554 16.6924 16.9126C18.8302 17.6504 20.0433 19.8197 20.4622 20.7079C20.5292 20.85 20.7316 20.85 20.7986 20.7079C21.2175 19.8197 22.4306 17.6504 24.5684 16.9126C24.734 16.8554 24.734 16.6197 24.5684 16.5625C22.4306 15.8247 21.2175 13.6555 20.7986 12.7672C20.7316 12.6251 20.5292 12.6251 20.4622 12.7672Z" stroke="white" stroke-width="1.5" stroke-miterlimit="10" stroke-linecap="round" stroke-linejoin="round"/>
<path d="M43.4408 49.2907C43.022 50.179 41.8088 52.3481 39.6711 53.086C39.5053 53.1431 39.5053 53.3788 39.6711 53.436C41.8088 54.1738 43.022 56.3431 43.4408 57.2313C43.5078 57.3734 43.7102 57.3734 43.7772 57.2313C44.1961 56.3431 45.4092 54.1738 47.547 53.436C47.7127 53.3788 47.7127 53.1431 47.547 53.086C45.4092 52.3481 44.1961 50.179 43.7772 49.2907C43.7102 49.1485 43.5078 49.1485 43.4408 49.2907Z" stroke="white" stroke-width="1.5" stroke-miterlimit="10" stroke-linecap="round" stroke-linejoin="round"/>
</g>
<defs>
<clipPath id="clip0_136_424">
<rect width="48" height="48" fill="white" transform="translate(11 11)"/>
</clipPath>
</defs>
</svg>
